<?xml version="1.0" encoding="UTF-8" standalone="no"?>
<!-- Created with Inkscape (http://www.inkscape.org/) -->

<svg
   width="210mm"
   height="297mm"
   viewBox="0 0 210 297"
   version="1.1"
   id="svg5"
   inkscape:export-filename="lineconn_clrd.pdf"
   inkscape:export-xdpi="96"
   inkscape:export-ydpi="96"
   xml:space="preserve"
   sodipodi:docname="conn.svg"
   inkscape:version="1.2.2 (b0a8486541, 2022-12-01)"
   xmlns:inkscape="http://www.inkscape.org/namespaces/inkscape"
   xmlns:sodipodi="http://sodipodi.sourceforge.net/DTD/sodipodi-0.dtd"
   xmlns="http://www.w3.org/2000/svg"
   xmlns:svg="http://www.w3.org/2000/svg"><sodipodi:namedview
     id="namedview7"
     pagecolor="#505050"
     bordercolor="#eeeeee"
     borderopacity="1"
     inkscape:showpageshadow="0"
     inkscape:pageopacity="0"
     inkscape:pagecheckerboard="0"
     inkscape:deskcolor="#505050"
     inkscape:document-units="mm"
     showgrid="false"
     inkscape:zoom="0.74118967"
     inkscape:cx="2591.1046"
     inkscape:cy="261.06678"
     inkscape:window-width="1920"
     inkscape:window-height="1011"
     inkscape:window-x="0"
     inkscape:window-y="32"
     inkscape:window-maximized="1"
     inkscape:current-layer="svg5"><inkscape:page
       x="0"
       y="0"
       width="210"
       height="297"
       id="page7051" /><inkscape:page
       x="220"
       y="0"
       width="141.5"
       height="130.48804"
       id="page7053" /><inkscape:page
       x="371.5"
       y="0"
       width="141.5"
       height="130.48804"
       id="page7142" /><inkscape:page
       x="523"
       y="0"
       width="141.5"
       height="130.48804"
       id="page7227" /><inkscape:page
       x="674.5"
       y="0"
       width="210.13551"
       height="87.292007"
       id="page7322" /></sodipodi:namedview><defs
     id="defs2"><linearGradient
       id="linearGradient1026"
       inkscape:swatch="solid"><stop
         style="stop-color:#000000;stop-opacity:1;"
         offset="0"
         id="stop1024" /></linearGradient><linearGradient
       id="linearGradient1020"
       inkscape:swatch="solid"><stop
         style="stop-color:#040404;stop-opacity:1;"
         offset="0"
         id="stop1018" /></linearGradient></defs><g
     inkscape:label="Layer 1"
     inkscape:groupmode="layer"
     id="layer1" /><g
     id="g6989"
     transform="matrix(0.35277776,0,0,0.35277778,220,4.1441456e-6)"><g
       id="g6991"><path
         d="m 235.984,36.125 c 0,19.559 -15.863,35.414 -35.433,35.414 -19.571,0 -35.434,-15.855 -35.434,-35.414 0,-19.559 15.863,-35.418 35.434,-35.418 19.57,0 35.433,15.859 35.433,35.418 z"
         style="fill:#77bbee;stroke:#000000;stroke-width:1.41732;stroke-linecap:butt;stroke-linejoin:miter;stroke-miterlimit:4;stroke-dasharray:none;stroke-opacity:1;fill-opacity:1"
         id="path6993" /></g><g
       id="g6995"><path
         d="m 321.023,333.762 c 0,19.562 -15.863,35.418 -35.433,35.418 -19.57,0 -35.434,-15.856 -35.434,-35.418 0,-19.559 15.864,-35.414 35.434,-35.414 19.57,0 35.433,15.855 35.433,35.414 z"
         style="fill:#77bbee;stroke:#000000;stroke-width:1.41732;stroke-linecap:butt;stroke-linejoin:miter;stroke-miterlimit:4;stroke-dasharray:none;stroke-opacity:1;fill-opacity:1"
         id="path6997" /></g><g
       id="g6999"><path
         d="m 150.945,333.762 c 0,19.562 -15.863,35.418 -35.433,35.418 -19.571,0 -35.434,-15.856 -35.434,-35.418 0,-19.559 15.863,-35.414 35.434,-35.414 19.57,0 35.433,15.855 35.433,35.414 z"
         style="fill:#77bbee;stroke:#000000;stroke-width:1.41732;stroke-linecap:butt;stroke-linejoin:miter;stroke-miterlimit:4;stroke-dasharray:none;stroke-opacity:1;fill-opacity:1"
         id="path7001" /></g><g
       id="g7003"><path
         d="m 71.574,169.352 c 0,19.562 -15.863,35.418 -35.433,35.418 -19.567,0 -35.434,-15.856 -35.434,-35.418 0,-19.559 15.867,-35.414 35.434,-35.414 19.57,0 35.433,15.855 35.433,35.414 z"
         style="fill:#77bbee;stroke:#000000;stroke-width:1.41732;stroke-linecap:butt;stroke-linejoin:miter;stroke-miterlimit:4;stroke-dasharray:none;stroke-opacity:1;fill-opacity:1"
         id="path7005" /></g><g
       id="g7007"><path
         d="m 400.395,169.352 c 0,19.562 -15.864,35.418 -35.434,35.418 -19.57,0 -35.434,-15.856 -35.434,-35.418 0,-19.559 15.864,-35.414 35.434,-35.414 19.57,0 35.434,15.855 35.434,35.414 z"
         style="fill:#77bbee;stroke:#000000;stroke-width:1.41732;stroke-linecap:butt;stroke-linejoin:miter;stroke-miterlimit:4;stroke-dasharray:none;stroke-opacity:1;fill-opacity:1"
         id="path7009" /></g><g
       id="g7011"><path
         d="M 63.664,147.051 173.027,58.43"
         style="fill:none;stroke:#000000;stroke-width:0.850394;stroke-linecap:butt;stroke-linejoin:miter;stroke-miterlimit:4;stroke-dasharray:none;stroke-opacity:1"
         id="path7013" /></g><g
       id="g7015"><path
         d="m 228.074,58.43 109.364,88.621"
         style="fill:none;stroke:#000000;stroke-width:0.850394;stroke-linecap:butt;stroke-linejoin:miter;stroke-miterlimit:4;stroke-dasharray:none;stroke-opacity:1"
         id="path7017" /></g><g
       id="g7019"><path
         d="M 349.562,201.25 300.988,301.867"
         style="fill:none;stroke:#000000;stroke-width:0.850394;stroke-linecap:butt;stroke-linejoin:miter;stroke-miterlimit:4;stroke-dasharray:none;stroke-opacity:1"
         id="path7021" /></g><g
       id="g7023"><path
         d="M 250.156,333.762 H 150.945"
         style="fill:none;stroke:#000000;stroke-width:0.850394;stroke-linecap:butt;stroke-linejoin:miter;stroke-miterlimit:4;stroke-dasharray:none;stroke-opacity:1"
         id="path7025" /></g><g
       id="g7027"><path
         d="M 100.113,301.867 51.539,201.25"
         style="fill:none;stroke:#000000;stroke-width:0.850394;stroke-linecap:butt;stroke-linejoin:miter;stroke-miterlimit:4;stroke-dasharray:none;stroke-opacity:1"
         id="path7029" /></g><g
       id="g7031"><path
         d="M 71.574,169.352 H 329.527"
         style="fill:none;stroke:#000000;stroke-width:0.850394;stroke-linecap:butt;stroke-linejoin:miter;stroke-miterlimit:4;stroke-dasharray:none;stroke-opacity:1"
         id="path7033" /></g><g
       id="g7035"><path
         d="M 65.723,188.848 256.012,314.266"
         style="fill:none;stroke:#000000;stroke-width:0.850394;stroke-linecap:butt;stroke-linejoin:miter;stroke-miterlimit:4;stroke-dasharray:none;stroke-opacity:1"
         id="path7037" /></g><g
       id="g7039"><path
         d="m 210.281,70.18 65.578,229.527"
         style="fill:none;stroke:#000000;stroke-width:0.850394;stroke-linecap:butt;stroke-linejoin:miter;stroke-miterlimit:4;stroke-dasharray:none;stroke-opacity:1"
         id="path7041" /></g><g
       id="g7043"><path
         d="M 190.82,70.18 125.242,299.707"
         style="fill:none;stroke:#000000;stroke-width:0.850394;stroke-linecap:butt;stroke-linejoin:miter;stroke-miterlimit:4;stroke-dasharray:none;stroke-opacity:1"
         id="path7045" /></g><g
       id="g7047"><path
         d="M 145.094,314.266 335.379,188.848"
         style="fill:none;stroke:#000000;stroke-width:0.850394;stroke-linecap:butt;stroke-linejoin:miter;stroke-miterlimit:4;stroke-dasharray:none;stroke-opacity:1"
         id="path7049" /></g></g><g
     id="g7096"
     transform="matrix(0.35277776,0,0,0.35277778,371.5,4.1441456e-6)"><g
       id="g7098"><path
         d="m 235.984,36.125 c 0,19.559 -15.863,35.414 -35.433,35.414 -19.571,0 -35.434,-15.855 -35.434,-35.414 0,-19.559 15.863,-35.418 35.434,-35.418 19.57,0 35.433,15.859 35.433,35.418 z"
         style="fill:#77bbee;stroke:#000000;stroke-width:1.41732;stroke-linecap:butt;stroke-linejoin:miter;stroke-miterlimit:4;stroke-dasharray:none;stroke-opacity:1;fill-opacity:1"
         id="path7100" /></g><g
       id="g7102"><path
         d="m 321.023,333.762 c 0,19.562 -15.863,35.418 -35.433,35.418 -19.57,0 -35.434,-15.856 -35.434,-35.418 0,-19.559 15.864,-35.414 35.434,-35.414 19.57,0 35.433,15.855 35.433,35.414 z"
         style="fill:#77bbee;stroke:#000000;stroke-width:1.41732;stroke-linecap:butt;stroke-linejoin:miter;stroke-miterlimit:4;stroke-dasharray:none;stroke-opacity:1;fill-opacity:1"
         id="path7104" /></g><g
       id="g7106"><path
         d="m 150.945,333.762 c 0,19.562 -15.863,35.418 -35.433,35.418 -19.571,0 -35.434,-15.856 -35.434,-35.418 0,-19.559 15.863,-35.414 35.434,-35.414 19.57,0 35.433,15.855 35.433,35.414 z"
         style="fill:#77bbee;stroke:#000000;stroke-width:1.41732;stroke-linecap:butt;stroke-linejoin:miter;stroke-miterlimit:4;stroke-dasharray:none;stroke-opacity:1;fill-opacity:1"
         id="path7108" /></g><g
       id="g7110"><path
         d="m 71.574,169.352 c 0,19.562 -15.863,35.418 -35.433,35.418 -19.567,0 -35.434,-15.856 -35.434,-35.418 0,-19.559 15.867,-35.414 35.434,-35.414 19.57,0 35.433,15.855 35.433,35.414 z"
         style="fill:#77bbee;stroke:#000000;stroke-width:1.41732;stroke-linecap:butt;stroke-linejoin:miter;stroke-miterlimit:4;stroke-dasharray:none;stroke-opacity:1;fill-opacity:1"
         id="path7112" /></g><g
       id="g7114"><path
         d="m 400.395,169.352 c 0,19.562 -15.864,35.418 -35.434,35.418 -19.57,0 -35.434,-15.856 -35.434,-35.418 0,-19.559 15.864,-35.414 35.434,-35.414 19.57,0 35.434,15.855 35.434,35.414 z"
         style="fill:#77bbee;stroke:#000000;stroke-width:1.41732;stroke-linecap:butt;stroke-linejoin:miter;stroke-miterlimit:4;stroke-dasharray:none;stroke-opacity:1;fill-opacity:1"
         id="path7116" /></g><g
       id="g7118"><path
         d="M 63.664,147.051 173.027,58.43"
         style="fill:none;stroke:#000000;stroke-width:0.850394;stroke-linecap:butt;stroke-linejoin:miter;stroke-miterlimit:4;stroke-dasharray:none;stroke-opacity:1"
         id="path7120" /></g><g
       id="g7122"><path
         d="m 228.074,58.43 109.364,88.621"
         style="fill:none;stroke:#000000;stroke-width:0.850394;stroke-linecap:butt;stroke-linejoin:miter;stroke-miterlimit:4;stroke-dasharray:none;stroke-opacity:1"
         id="path7124" /></g><g
       id="g7126"><path
         d="M 349.562,201.25 300.988,301.867"
         style="fill:none;stroke:#000000;stroke-width:0.850394;stroke-linecap:butt;stroke-linejoin:miter;stroke-miterlimit:4;stroke-dasharray:none;stroke-opacity:1"
         id="path7128" /></g><g
       id="g7130"><path
         d="M 250.156,333.762 H 150.945"
         style="fill:none;stroke:#000000;stroke-width:0.850394;stroke-linecap:butt;stroke-linejoin:miter;stroke-miterlimit:4;stroke-dasharray:none;stroke-opacity:1"
         id="path7132" /></g><g
       id="g7134"><path
         d="M 100.113,301.867 51.539,201.25"
         style="fill:none;stroke:#000000;stroke-width:0.850394;stroke-linecap:butt;stroke-linejoin:miter;stroke-miterlimit:4;stroke-dasharray:none;stroke-opacity:1"
         id="path7136" /></g><g
       id="g7138"><path
         d="m 293.742,111.047 c 0,0.086 -0.066,0.152 -0.152,0.152 -0.082,0 -0.152,-0.066 -0.152,-0.152 0,-0.086 0.07,-0.152 0.152,-0.152 0.086,0 0.152,0.066 0.152,0.152 z"
         style="fill:#000000;fill-opacity:1;fill-rule:nonzero;stroke:#000000;stroke-width:0.749999;stroke-linecap:butt;stroke-linejoin:miter;stroke-miterlimit:4;stroke-dasharray:none;stroke-opacity:1"
         id="path7140" /></g></g><g
     id="g7177"
     transform="matrix(0.35277776,0,0,0.35277778,523,4.1441456e-6)"><g
       id="g7179"><path
         d="m 235.984,36.125 c 0,19.559 -15.863,35.414 -35.433,35.414 -19.571,0 -35.434,-15.855 -35.434,-35.414 0,-19.559 15.863,-35.418 35.434,-35.418 19.57,0 35.433,15.859 35.433,35.418 z"
         style="fill:#77bbee;stroke:#000000;stroke-width:1.41732;stroke-linecap:butt;stroke-linejoin:miter;stroke-miterlimit:4;stroke-dasharray:none;stroke-opacity:1;fill-opacity:1"
         id="path7181" /></g><g
       id="g7183"
       style="fill:#77bbee;fill-opacity:1"><path
         d="m 236.012,169.352 c 0,19.562 -15.864,35.418 -35.434,35.418 -19.566,0 -35.433,-15.856 -35.433,-35.418 0,-19.559 15.867,-35.414 35.433,-35.414 19.57,0 35.434,15.855 35.434,35.414 z"
         style="fill:#77bbee;stroke:#000000;stroke-width:1.41732;stroke-linecap:butt;stroke-linejoin:miter;stroke-miterlimit:4;stroke-dasharray:none;stroke-opacity:1;fill-opacity:1"
         id="path7185" /></g><g
       id="g7187"
       style="fill:#77bbee;fill-opacity:1"><path
         d="m 321.023,333.762 c 0,19.562 -15.863,35.418 -35.433,35.418 -19.57,0 -35.434,-15.856 -35.434,-35.418 0,-19.559 15.864,-35.414 35.434,-35.414 19.57,0 35.433,15.855 35.433,35.414 z"
         style="fill:#77bbee;stroke:#000000;stroke-width:1.41732;stroke-linecap:butt;stroke-linejoin:miter;stroke-miterlimit:4;stroke-dasharray:none;stroke-opacity:1;fill-opacity:1"
         id="path7189" /></g><g
       id="g7191"
       style="fill:#77bbee;fill-opacity:1"><path
         d="m 150.945,333.762 c 0,19.562 -15.863,35.418 -35.433,35.418 -19.571,0 -35.434,-15.856 -35.434,-35.418 0,-19.559 15.863,-35.414 35.434,-35.414 19.57,0 35.433,15.855 35.433,35.414 z"
         style="fill:#77bbee;stroke:#000000;stroke-width:1.41732;stroke-linecap:butt;stroke-linejoin:miter;stroke-miterlimit:4;stroke-dasharray:none;stroke-opacity:1;fill-opacity:1"
         id="path7193" /></g><g
       id="g7195"
       style="fill:#77bbee;fill-opacity:1"><path
         d="m 71.574,169.352 c 0,19.562 -15.863,35.418 -35.433,35.418 -19.567,0 -35.434,-15.856 -35.434,-35.418 0,-19.559 15.867,-35.414 35.434,-35.414 19.57,0 35.433,15.855 35.433,35.414 z"
         style="fill:#77bbee;stroke:#000000;stroke-width:1.41732;stroke-linecap:butt;stroke-linejoin:miter;stroke-miterlimit:4;stroke-dasharray:none;stroke-opacity:1;fill-opacity:1"
         id="path7197" /></g><g
       id="g7199"
       style="fill:#77bbee;fill-opacity:1"><path
         d="m 400.395,169.352 c 0,19.562 -15.864,35.418 -35.434,35.418 -19.57,0 -35.434,-15.856 -35.434,-35.418 0,-19.559 15.864,-35.414 35.434,-35.414 19.57,0 35.434,15.855 35.434,35.414 z"
         style="fill:#77bbee;stroke:#000000;stroke-width:1.41732;stroke-linecap:butt;stroke-linejoin:miter;stroke-miterlimit:4;stroke-dasharray:none;stroke-opacity:1;fill-opacity:1"
         id="path7201" /></g><g
       id="g7203"><path
         d="m 293.742,111.047 c 0,0.086 -0.066,0.152 -0.152,0.152 -0.082,0 -0.152,-0.066 -0.152,-0.152 0,-0.086 0.07,-0.152 0.152,-0.152 0.086,0 0.152,0.066 0.152,0.152 z"
         style="fill:#000000;fill-opacity:1;fill-rule:nonzero;stroke:#000000;stroke-width:0.749999;stroke-linecap:butt;stroke-linejoin:miter;stroke-miterlimit:4;stroke-dasharray:none;stroke-opacity:1"
         id="path7205" /></g><g
       id="g7207"><path
         d="M 200.57,133.938 200.559,71.539"
         style="fill:none;stroke:#000000;stroke-width:0.850394;stroke-linecap:butt;stroke-linejoin:miter;stroke-miterlimit:4;stroke-dasharray:none;stroke-opacity:1"
         id="path7209" /></g><g
       id="g7211"><path
         d="m 236.012,169.352 h 93.515"
         style="fill:none;stroke:#000000;stroke-width:0.850394;stroke-linecap:butt;stroke-linejoin:miter;stroke-miterlimit:4;stroke-dasharray:none;stroke-opacity:1"
         id="path7213" /></g><g
       id="g7215"><path
         d="m 216.848,200.816 52.476,101.485"
         style="fill:none;stroke:#000000;stroke-width:0.850394;stroke-linecap:butt;stroke-linejoin:miter;stroke-miterlimit:4;stroke-dasharray:none;stroke-opacity:1"
         id="path7217" /></g><g
       id="g7219"><path
         d="M 184.305,200.812 131.789,302.305"
         style="fill:none;stroke:#000000;stroke-width:0.850394;stroke-linecap:butt;stroke-linejoin:miter;stroke-miterlimit:4;stroke-dasharray:none;stroke-opacity:1"
         id="path7221" /></g><g
       id="g7223"><path
         d="M 165.145,169.352 H 71.574"
         style="fill:none;stroke:#000000;stroke-width:0.850394;stroke-linecap:butt;stroke-linejoin:miter;stroke-miterlimit:4;stroke-dasharray:none;stroke-opacity:1"
         id="path7225" /></g></g><g
     id="g7264"
     transform="matrix(0.35277776,0,0,0.35277778,674.5,2.1823002e-6)"><g
       id="g7266"
       style="fill:#77bbee;fill-opacity:1"><path
         d="m 355.039,55.41 c 0,19.563 -15.863,35.418 -35.434,35.418 -19.566,0 -35.433,-15.855 -35.433,-35.418 0,-19.558 15.867,-35.414 35.433,-35.414 19.571,0 35.434,15.856 35.434,35.414 z"
         style="fill:#77bbee;stroke:#000000;stroke-width:1.41732;stroke-linecap:butt;stroke-linejoin:miter;stroke-miterlimit:4;stroke-dasharray:none;stroke-opacity:1;fill-opacity:1"
         id="path7268" /></g><g
       id="g7270"
       style="fill:#77bbee;fill-opacity:1"><path
         d="m 440.078,211.316 c 0,19.559 -15.863,35.418 -35.433,35.418 -19.567,0 -35.434,-15.859 -35.434,-35.418 0,-19.558 15.867,-35.414 35.434,-35.414 19.57,0 35.433,15.856 35.433,35.414 z"
         style="fill:#77bbee;stroke:#000000;stroke-width:1.41732;stroke-linecap:butt;stroke-linejoin:miter;stroke-miterlimit:4;stroke-dasharray:none;stroke-opacity:1;fill-opacity:1"
         id="path7272" /></g><g
       id="g7274"
       style="fill:#77bbee;fill-opacity:1"><path
         d="m 270,211.316 c 0,19.559 -15.863,35.418 -35.434,35.418 -19.57,0 -35.433,-15.859 -35.433,-35.418 0,-19.558 15.863,-35.414 35.433,-35.414 19.571,0 35.434,15.856 35.434,35.414 z"
         style="fill:#77bbee;stroke:#000000;stroke-width:1.41732;stroke-linecap:butt;stroke-linejoin:miter;stroke-miterlimit:4;stroke-dasharray:none;stroke-opacity:1;fill-opacity:1"
         id="path7276" /></g><g
       id="g7278"
       style="stroke:#000000;stroke-opacity:1;fill:#77bbee;fill-opacity:1"><path
         d="m 184.961,55.41 c 0,19.563 -15.863,35.418 -35.434,35.418 -19.57,0 -35.433,-15.855 -35.433,-35.418 0,-19.558 15.863,-35.414 35.433,-35.414 19.571,0 35.434,15.856 35.434,35.414 z"
         style="fill:#77bbee;stroke:#000000;stroke-width:1.41732;stroke-linecap:butt;stroke-linejoin:miter;stroke-miterlimit:4;stroke-dasharray:none;stroke-opacity:1;fill-opacity:1"
         id="path7280" /></g><g
       id="g7282"
       style="fill:#77bbee;fill-opacity:1"><path
         d="m 525.117,55.41 c 0,19.563 -15.863,35.418 -35.433,35.418 -19.567,0 -35.43,-15.855 -35.43,-35.418 0,-19.558 15.863,-35.414 35.43,-35.414 19.57,0 35.433,15.856 35.433,35.414 z"
         style="fill:#77bbee;stroke:#000000;stroke-width:1.41732;stroke-linecap:butt;stroke-linejoin:miter;stroke-miterlimit:4;stroke-dasharray:none;stroke-opacity:1;fill-opacity:1"
         id="path7284" /></g><g
       id="g7286"><path
         d="m 412.09,129.625 c 0,0.086 -0.067,0.152 -0.152,0.152 -0.086,0 -0.153,-0.066 -0.153,-0.152 0,-0.086 0.067,-0.152 0.153,-0.152 0.085,0 0.152,0.066 0.152,0.152 z"
         style="fill:#000000;fill-opacity:1;fill-rule:nonzero;stroke:#000000;stroke-width:0.749999;stroke-linecap:butt;stroke-linejoin:miter;stroke-miterlimit:4;stroke-dasharray:none;stroke-opacity:1"
         id="path7288" /></g><g
       id="g7290"><path
         d="m 0,131.922 595.273,0.324"
         style="fill:none;stroke:#000000;stroke-width:0.850666;stroke-linecap:butt;stroke-linejoin:bevel;stroke-miterlimit:4;stroke-dasharray:none;stroke-opacity:1"
         id="path7292" /></g><g
       id="g7294"><path
         d="m 149.242,132.254 0.953,-42.09"
         style="fill:none;stroke:#000000;stroke-width:0.850394;stroke-linecap:butt;stroke-linejoin:bevel;stroke-miterlimit:4;stroke-dasharray:none;stroke-opacity:1"
         id="path7296" /></g><g
       id="g7298"><path
         d="m 319.324,132.254 0.949,-42.09"
         style="fill:none;stroke:#000000;stroke-width:0.850394;stroke-linecap:butt;stroke-linejoin:bevel;stroke-miterlimit:4;stroke-dasharray:none;stroke-opacity:1"
         id="path7300" /></g><g
       id="g7302"><path
         d="m 489.402,132.254 0.95,-42.09"
         style="fill:none;stroke:#000000;stroke-width:0.850394;stroke-linecap:butt;stroke-linejoin:bevel;stroke-miterlimit:4;stroke-dasharray:none;stroke-opacity:1"
         id="path7304" /></g><g
       id="g7306"><path
         d="m 232.48,174.977 0.954,-42.09"
         style="fill:none;stroke:#000000;stroke-width:0.850394;stroke-linecap:butt;stroke-linejoin:bevel;stroke-miterlimit:4;stroke-dasharray:none;stroke-opacity:1"
         id="path7308" /></g><g
       id="g7310"><path
         d="m 402.562,174.977 0.95,-42.09"
         style="fill:none;stroke:#000000;stroke-width:0.850394;stroke-linecap:butt;stroke-linejoin:bevel;stroke-miterlimit:4;stroke-dasharray:none;stroke-opacity:1"
         id="path7312" /></g><g
       id="g7314"><path
         d="m 1.926,118.801 h 56.695 v 28.348 H 1.926 Z"
         style="fill:#000000;fill-opacity:1;fill-rule:nonzero;stroke:#000000;stroke-width:0.850394;stroke-linecap:butt;stroke-linejoin:bevel;stroke-miterlimit:4;stroke-dasharray:none;stroke-opacity:1"
         id="path7316" /></g><g
       id="g7318"><path
         d="m 538.543,118.469 h 56.691 v 28.348 h -56.691 z"
         style="fill:#000000;fill-opacity:1;fill-rule:nonzero;stroke:#000000;stroke-width:0.850394;stroke-linecap:butt;stroke-linejoin:bevel;stroke-miterlimit:4;stroke-dasharray:none;stroke-opacity:1"
         id="path7320" /></g></g></svg>
