<svg version="1.1" xmlns="http://www.w3.org/2000/svg" xmlns:xlink="http://www.w3.org/1999/xlink" width="884" height="556">
    <defs/>
    <g>
        <g transform="translate(-254,-6) scale(1,1)">
            <path fill="none" stroke="#000000" d="M 264 16 L 1128 16 L 1128 552 L 264 552 L 264 16" stroke-miterlimit="10"/>
        </g>
        <g transform="translate(-254,-6) scale(1,1)">
            <path fill="#ffffff" stroke="none" d="M 264 16 L 264 43 L 344.0107421875 43 L 357.5107421875 29.5 L 357.5107421875 16 L 264 16"/>
        </g>
        <g transform="translate(-254,-6) scale(1,1)">
            <path fill="none" stroke="#000000" d="M 264 16 L 264 43 L 344.0107421875 43 L 357.5107421875 29.5 L 357.5107421875 16 L 264 16 L 264 16" stroke-miterlimit="10"/>
        </g>
        <g transform="translate(-254,-6) scale(1,1)">
            <g>
                <path fill="none" stroke="none"/>
                <text fill="#000000" stroke="none" font-family="Arial" font-size="18px" font-style="normal" font-weight="normal" text-decoration="none" x="294.0107421875" y="36">QUIC</text>
            </g>
        </g>
        <g transform="translate(-254,-6) scale(1,1)">
            <g>
                <path fill="none" stroke="none"/>
                <text fill="#000000" stroke="none" font-family="Arial" font-size="18px" font-style="normal" font-weight="bold" text-decoration="none" x="268.00244140625" y="36">sd</text>
            </g>
        </g>
        <g transform="translate(-254,-6) scale(1,1)">
            <rect fill="#C0C0C0" stroke="none" x="511" y="47" width="95.04296875" height="39" opacity="0.2"/>
        </g>
        <g transform="translate(-254,-6) scale(1,1)">
            <rect fill="#ffffff" stroke="none" x="504" y="40" width="95.04296875" height="39"/>
        </g>
        <g transform="translate(-254,-6) scale(1,1)">
            <path fill="none" stroke="#000000" d="M 504 40 L 599.04296875 40 L 599.04296875 79 L 504 79 L 504 40 Z Z" stroke-miterlimit="10"/>
        </g>
        <g transform="translate(-254,-6) scale(1,1)">
            <g>
                <path fill="none" stroke="none"/>
                <text fill="#000000" stroke="none" font-family="Arial" font-size="24px" font-style="normal" font-weight="bold" text-decoration="none" x="513.5" y="67">Peer A</text>
            </g>
        </g>
        <g transform="translate(-254,-6) scale(1,1)">
            <path fill="none" stroke="#000000" d="M 552.5 80 L 552.5 528" stroke-miterlimit="10" stroke-dasharray="3"/>
        </g>
        <g transform="translate(-254,-6) scale(1,1)">
            <rect fill="#C0C0C0" stroke="none" x="799" y="47" width="95.04296875" height="39" opacity="0.2"/>
        </g>
        <g transform="translate(-254,-6) scale(1,1)">
            <rect fill="#ffffff" stroke="none" x="792" y="40" width="95.04296875" height="39"/>
        </g>
        <g transform="translate(-254,-6) scale(1,1)">
            <path fill="none" stroke="#000000" d="M 792 40 L 887.04296875 40 L 887.04296875 79 L 792 79 L 792 40 Z Z" stroke-miterlimit="10"/>
        </g>
        <g transform="translate(-254,-6) scale(1,1)">
            <g>
                <path fill="none" stroke="none"/>
                <text fill="#000000" stroke="none" font-family="Arial" font-size="24px" font-style="normal" font-weight="bold" text-decoration="none" x="801.5" y="67">Peer B</text>
            </g>
        </g>
        <g transform="translate(-254,-6) scale(1,1)">
            <path fill="none" stroke="#000000" d="M 840.5 80 L 840.5 528" stroke-miterlimit="10" stroke-dasharray="3"/>
        </g>
        <g transform="translate(-254,-6) scale(1,1)">
            <path fill="#d1ffa3" stroke="none" d="M 392 104 L 480 104 L 490 114 L 490 152 L 392 152 L 392 104"/>
        </g>
        <g transform="translate(-254,-6) scale(1,1)">
            <path fill="none" stroke="#000000" d="M 392 104 L 480 104 L 490 114 L 490 152 L 392 152 L 392 104 L 392 104" stroke-miterlimit="10"/>
        </g>
        <g transform="translate(-254,-6) scale(1,1)">
            <path fill="none" stroke="#000000" d="M 480 104 L 480 114 L 490 114 L 480 104" stroke-miterlimit="10"/>
        </g>
        <g transform="translate(-254,-6) scale(1,1)">
            <g>
                <path fill="none" stroke="none"/>
                <text fill="#000000" stroke="none" font-family="Arial" font-size="20px" font-style="normal" font-weight="normal" text-decoration="none" x="407.603515625" y="132">INITIAL</text>
            </g>
        </g>
        <g transform="translate(-254,-6) scale(1,1)">
            <path fill="#d1ffa3" stroke="none" d="M 864 144 L 973 144 L 983 154 L 983 194 L 864 194 L 864 144"/>
        </g>
        <g transform="translate(-254,-6) scale(1,1)">
            <path fill="none" stroke="#000000" d="M 864 144 L 973 144 L 983 154 L 983 194 L 864 194 L 864 144 L 864 144" stroke-miterlimit="10"/>
        </g>
        <g transform="translate(-254,-6) scale(1,1)">
            <path fill="none" stroke="#000000" d="M 973 144 L 973 154 L 983 154 L 973 144" stroke-miterlimit="10"/>
        </g>
        <g transform="translate(-254,-6) scale(1,1)">
            <g>
                <path fill="none" stroke="none"/>
                <text fill="#000000" stroke="none" font-family="Arial" font-size="20px" font-style="normal" font-weight="normal" text-decoration="none" x="890.103515625" y="173">INITIAL</text>
            </g>
        </g>
        <g transform="translate(-254,-6) scale(1,1)">
            <path fill="#ffd6ad" stroke="none" d="M 392 152 L 496.708984375 152 L 506.708984375 162 L 506.708984375 207 L 392 207 L 392 152"/>
        </g>
        <g transform="translate(-254,-6) scale(1,1)">
            <path fill="none" stroke="#000000" d="M 392 152 L 496.708984375 152 L 506.708984375 162 L 506.708984375 207 L 392 207 L 392 152 L 392 152" stroke-miterlimit="10"/>
        </g>
        <g transform="translate(-254,-6) scale(1,1)">
            <path fill="none" stroke="#000000" d="M 496.708984375 152 L 496.708984375 162 L 506.708984375 162 L 496.708984375 152" stroke-miterlimit="10"/>
        </g>
        <g transform="translate(-254,-6) scale(1,1)">
            <g>
                <path fill="none" stroke="none"/>
                <text fill="#000000" stroke="none" font-family="Arial" font-size="20px" font-style="normal" font-weight="normal" text-decoration="none" x="401.5" y="185">ClientHello</text>
            </g>
        </g>
        <g transform="translate(-254,-6) scale(1,1)">
            <path fill="#ffd6ad" stroke="none" d="M 864 192 L 1024.294921875 192 L 1034.294921875 202 L 1034.294921875 266 L 864 266 L 864 192"/>
        </g>
        <g transform="translate(-254,-6) scale(1,1)">
            <path fill="none" stroke="#000000" d="M 864 192 L 1024.294921875 192 L 1034.294921875 202 L 1034.294921875 266 L 864 266 L 864 192 L 864 192" stroke-miterlimit="10"/>
        </g>
        <g transform="translate(-254,-6) scale(1,1)">
            <path fill="none" stroke="#000000" d="M 1024.294921875 192 L 1024.294921875 202 L 1034.294921875 202 L 1024.294921875 192" stroke-miterlimit="10"/>
        </g>
        <g transform="translate(-254,-6) scale(1,1)">
            <g>
                <path fill="none" stroke="none"/>
                <text fill="#000000" stroke="none" font-family="Arial" font-size="20px" font-style="normal" font-weight="normal" text-decoration="none" x="897.40625" y="212">ServerHello</text>
            </g>
        </g>
        <g transform="translate(-254,-6) scale(1,1)">
            <g>
                <path fill="none" stroke="none"/>
                <text fill="#000000" stroke="none" font-family="Arial" font-size="20px" font-style="normal" font-weight="normal" text-decoration="none" x="904.6328125" y="234">Certificate</text>
            </g>
        </g>
        <g transform="translate(-254,-6) scale(1,1)">
            <g>
                <path fill="none" stroke="none"/>
                <text fill="#000000" stroke="none" font-family="Arial" font-size="20px" font-style="normal" font-weight="normal" text-decoration="none" x="873.5" y="256">ServerHelloDone</text>
            </g>
        </g>
        <g transform="translate(-254,-6) scale(1,1)">
            <path fill="#ffd6ad" stroke="none" d="M 280 376 L 530.373046875 376 L 540.373046875 386 L 540.373046875 450 L 280 450 L 280 376"/>
        </g>
        <g transform="translate(-254,-6) scale(1,1)">
            <path fill="none" stroke="#000000" d="M 280 376 L 530.373046875 376 L 540.373046875 386 L 540.373046875 450 L 280 450 L 280 376 L 280 376" stroke-miterlimit="10"/>
        </g>
        <g transform="translate(-254,-6) scale(1,1)">
            <path fill="none" stroke="#000000" d="M 530.373046875 376 L 530.373046875 386 L 540.373046875 386 L 530.373046875 376" stroke-miterlimit="10"/>
        </g>
        <g transform="translate(-254,-6) scale(1,1)">
            <g>
                <path fill="none" stroke="none"/>
                <text fill="#000000" stroke="none" font-family="Arial" font-size="20px" font-style="normal" font-weight="normal" text-decoration="none" x="323.4111328125" y="396">ClientKeyExchange</text>
            </g>
        </g>
        <g transform="translate(-254,-6) scale(1,1)">
            <g>
                <path fill="none" stroke="none"/>
                <text fill="#000000" stroke="none" font-family="Arial" font-size="20px" font-style="normal" font-weight="normal" text-decoration="none" x="323.40625" y="418">ChangeCipherSpec</text>
            </g>
        </g>
        <g transform="translate(-254,-6) scale(1,1)">
            <g>
                <path fill="none" stroke="none"/>
                <text fill="#000000" stroke="none" font-family="Arial" font-size="20px" font-style="normal" font-weight="normal" text-decoration="none" x="372.888671875" y="440">Finished</text>
            </g>
        </g>
        <g transform="translate(-254,-6) scale(1,1)">
            <path fill="#ffd6ad" stroke="none" d="M 864 264 L 1114.373046875 264 L 1124.373046875 274 L 1124.373046875 338 L 864 338 L 864 264"/>
        </g>
        <g transform="translate(-254,-6) scale(1,1)">
            <path fill="none" stroke="#000000" d="M 864 264 L 1114.373046875 264 L 1124.373046875 274 L 1124.373046875 338 L 864 338 L 864 264 L 864 264" stroke-miterlimit="10"/>
        </g>
        <g transform="translate(-254,-6) scale(1,1)">
            <path fill="none" stroke="#000000" d="M 1114.373046875 264 L 1114.373046875 274 L 1124.373046875 274 L 1114.373046875 264" stroke-miterlimit="10"/>
        </g>
        <g transform="translate(-254,-6) scale(1,1)">
            <g>
                <path fill="none" stroke="none"/>
                <text fill="#000000" stroke="none" font-family="Arial" font-size="20px" font-style="normal" font-weight="normal" text-decoration="none" x="907.40625" y="295">ChangeCipherSpec</text>
            </g>
        </g>
        <g transform="translate(-254,-6) scale(1,1)">
            <g>
                <path fill="none" stroke="none"/>
                <text fill="#000000" stroke="none" font-family="Arial" font-size="20px" font-style="normal" font-weight="normal" text-decoration="none" x="956.888671875" y="317">Finished</text>
            </g>
        </g>
        <g transform="translate(-254,-6) scale(1,1)">
            <path fill="none" stroke="#000000" d="M 552 128 L 833 128" stroke-miterlimit="10"/>
        </g>
        <g transform="translate(-254,-6) scale(1,1)">
            <path fill="#000000" stroke="none" d="M 822.8373251423759 132.209517756016 L 833 128 L 822.8373251423758 123.79048224398402"/>
        </g>
        <g transform="translate(-254,-6) scale(1,1)">
            <path fill="none" stroke="#000000" d="M 822.8373251423759 132.209517756016 L 833 128 L 822.8373251423758 123.79048224398402 L 822.8373251423759 132.209517756016" stroke-miterlimit="10"/>
        </g>
        <g transform="translate(-254,-6) scale(1,1)">
            <g>
                <path fill="none" stroke="none"/>
                <text fill="#000000" stroke="none" font-family="Arial" font-size="18px" font-style="normal" font-weight="normal" text-decoration="none" x="614.5" y="124">1 : INITIAL, HELLO</text>
            </g>
        </g>
        <g transform="translate(-254,-6) scale(1,1)">
            <rect fill="#ffffff" stroke="none" x="833" y="128" width="13" height="240"/>
        </g>
        <g transform="translate(-254,-6) scale(1,1)">
            <path fill="none" stroke="#000000" d="M 833 128 L 846 128 L 846 368 L 833 368 L 833 128 Z Z" stroke-miterlimit="10"/>
        </g>
        <g transform="translate(-254,-6) scale(1,1)">
            <path fill="none" stroke="#000000" d="M 840 368 L 558 368" stroke-miterlimit="10"/>
        </g>
        <g transform="translate(-254,-6) scale(1,1)">
            <path fill="#000000" stroke="none" d="M 568.1626748576241 363.790482243984 L 558 368 L 568.1626748576241 372.209517756016"/>
        </g>
        <g transform="translate(-254,-6) scale(1,1)">
            <path fill="none" stroke="#000000" d="M 568.1626748576241 363.790482243984 L 558 368 L 568.1626748576241 372.209517756016 L 568.1626748576241 363.790482243984" stroke-miterlimit="10"/>
        </g>
        <g transform="translate(-254,-6) scale(1,1)">
            <g>
                <path fill="none" stroke="none"/>
                <text fill="#000000" stroke="none" font-family="Arial" font-size="18px" font-style="normal" font-weight="normal" text-decoration="none" x="563.5" y="357">2 : INITIAL, HELLO, CERT, FIN</text>
            </g>
        </g>
        <g transform="translate(-254,-6) scale(1,1)">
            <rect fill="#ffffff" stroke="none" x="545" y="368" width="13" height="96"/>
        </g>
        <g transform="translate(-254,-6) scale(1,1)">
            <path fill="none" stroke="#000000" d="M 545 368 L 558 368 L 558 464 L 545 464 L 545 368 Z Z" stroke-miterlimit="10"/>
        </g>
    </g>
</svg>